{"title":"Huragan ognia - Rapid Fire  (1992) [DVDRip] [Xvid-torentup] [Lek","uid":12644544,"size":733900214,"categoryP":"video","categoryS":"movies","magnet":"?xt=urn:btih:0462174392277494b7fc6a3a9f8c82f91fcc7ff5&amp;dn=Huragan+ognia+-+Rapid+Fire++%281992%29+%5BDVDRip%5D+%5BXvid-torentup%5D+%5BLek&amp;tr=udp%3A%2F%2Ftracker.leechers-paradise.org%3A6969&amp;tr=udp%3A%2F%2Fzer0day.ch%3A1337&amp;tr=udp%3A%2F%2Fopen.demonii.com%3A1337&amp;tr=udp%3A%2F%2Ftracker.coppersurfer.tk%3A6969&amp;tr=udp%3A%2F%2Fexodus.desync.com%3A6969","seeders":1,"leechers":0,"uploader":"torentup","files":5,"time":1446037047,"description":"=====================\r\nINFO\r\n================\r\n\r\nGatunek: Karate\r\nProdukcja: USA\r\nPremiera: 21 sierpnia 1992 (świat)\r\nCzas trwania: 1 godz. 31 min.\r\nReżyseria: Dwight H. Little\r\nScenariusz: Alan B. McElroy \r\n\r\n\r\n=====================\r\nOPIS\r\n====================\r\n\r\nStudent Jake Lo (Brandon Lee - &quot;Kruk&quot;) zostaje zaproszony na ekskluzywne przyjęcie, z którego dochód ma być przeznaczony na walke z komuną w Chinach. Impreza odbywa się u właścieciela luksusowej galerii. Ów biznesmen jest członkiem mafii i pracuje dla Kinmana Tau, przywódcy kartelu narkotykowego. Na oczach Jake organizator przyjęcia zostaje zamordowany przez gangstera Antonio Serrano. Ściagany przez handlarzy narkotyków i agentów federalnych musi znależć drogę ucieczki i sposób na przeżycie... \r\n\r\n=====================\r\nOBSADA\r\n====================\r\n\r\nBrandon Lee.............. - Jake Lo\r\nPowers Boothe............ - Mace Ryan\r\nNick Mancuso............. - Antonio Serrano\r\nRaymond J. Barry......... - Agent Frank Stewart\r\nKate Hodge............... - Karla Withers\r\nTzi Ma................... -\r\nMichael Paul Chan........ -\r\nTony Longo............... -\r\n\r\n=====================\r\nDANE TECHNICZNE\r\n=====================\r\n\r\nFormat                         : AVI\r\nFormat/Info                    : Audio Video Interleave\r\nFile size                      : 700 MiB\r\nDuration                       : 1h 31mn\r\nOverall bit rate               : 1 072 Kbps\r\nWriting application            : VirtualDubMod 1.5.10.2 (build 2540/release)\r\nWriting library                : VirtualDubMod build 2540/release\r\n\r\nVideo\r\nID                             : 0\r\nFormat                         : MPEG-4 Visual\r\nFormat profile                 : Advanced   \r\nFormat settings, BVOP          : Yes\r\nFormat settings, QPel          : No\r\nFormat settings, GMC           : No warppoints\r\nFormat settings, Matrix        : Default (H.263)\r\nCodec ID                       : XVID\r\nCodec ID/Hint                  : XviD\r\nDuration                       : 1h 31mn\r\nBit rate                       : 935 Kbps\r\nWidth                          : 640 pixels\r\nHeight                         : 336 pixels\r\nDisplay aspect ratio           : 1.905\r\nFrame rate                     : 25.000 fps\r\nColor space                    : YUV\r\nChroma subsampling             : 4:2:0\r\nBit depth                      : 8 bits\r\nScan type                      : Progressive\r\nCompression mode               : Lossy\r\nBits/(Pixel*Frame)             : 0.174\r\nStream size                    : 610 MiB (87%)\r\nWriting library                : XviD 1.1.0 (UTC 2005-11-22)\r\n\r\nAudio\r\nID                             : 1\r\nFormat                         : MPEG Audio\r\nFormat version                 : Version 1\r\nFormat profile                 : Layer 3\r\nMode                           : Joint stereo\r\nMode extension                 : MS Stereo\r\nCodec ID                       : 55\r\nCodec ID/Hint                  : MP3\r\nDuration                       : 1h 31mn\r\nBit rate mode                  : Constant\r\nBit rate                       : 128 Kbps\r\nChannel(s)                     : 2 channels\r\nSampling rate                  : 48.0 KHz\r\nCompression mode               : Lossy\r\nDelay relative to video        : 1s 368ms\r\nStream size                    : 83.5 MiB (12%)\r\nAlignment                      : Split accross interleaves\r\nInterleave, duration           : 40 ms (1.00 video frame)\r\nInterleave, preload duration   : 504 ms","torrent":{"xt":"urn:btih:0462174392277494b7fc6a3a9f8c82f91fcc7ff5","amp;dn":"Huragan+ognia+-+Rapid+Fire++%281992%29+%5BDVDRip%5D+%5BXvid-torentup%5D+%5BLek","amp;tr":["udp%3A%2F%2Ftracker.leechers-paradise.org%3A6969","udp%3A%2F%2Fzer0day.ch%3A1337","udp%3A%2F%2Fopen.demonii.com%3A1337","udp%3A%2F%2Ftracker.coppersurfer.tk%3A6969","udp%3A%2F%2Fexodus.desync.com%3A6969"],"infoHash":"0462174392277494b7fc6a3a9f8c82f91fcc7ff5","infoHashBuffer":{"type":"Buffer","data":[4,98,23,67,146,39,116,148,183,252,106,58,159,140,130,249,31,204,127,245]},"announce":[],"urlList":[]}}